<svg xmlns="http://www.w3.org/2000/svg" width="283.401" height="266.803" viewBox="0 0 283.401 266.803">
  <g id="Grupo_1214" data-name="Grupo 1214" transform="translate(0.75 0.775)" opacity="0.3">
    <path id="Caminho_8114" data-name="Caminho 8114" d="M34.692,371.689h0a2.919,2.919,0,0,0-2.585.009,2.021,2.021,0,0,0-1.216,1.781v47.936a2.046,2.046,0,0,0,1.239,1.79h0l35.024,17.25h0a2.919,2.919,0,0,0,2.585-.009,2.021,2.021,0,0,0,1.216-1.781V390.7a2.047,2.047,0,0,0-1.239-1.79h0Z" transform="translate(131.44 -296.646)" fill="none" stroke="#fff" stroke-width="1.5"/>
    <path id="Caminho_8115" data-name="Caminho 8115" d="M168.708,291.047h0a2.922,2.922,0,0,0-2.585.01,2.021,2.021,0,0,0-1.216,1.781v47.936a2.048,2.048,0,0,0,1.238,1.79h0l35.024,17.251h0a2.919,2.919,0,0,0,2.585-.01,2.022,2.022,0,0,0,1.215-1.781V310.059a2.046,2.046,0,0,0-1.238-1.79h0Z" transform="translate(-126.795 -290.75)" fill="none" stroke="#fff" stroke-width="1.5"/>
    <path id="Caminho_8116" data-name="Caminho 8116" d="M79.222,452.329h0a2.922,2.922,0,0,0-2.585.01,2.02,2.02,0,0,0-1.215,1.781v47.936a2.046,2.046,0,0,0,1.238,1.79h0l35.024,17.25h0a2.922,2.922,0,0,0,2.585-.009,2.021,2.021,0,0,0,1.216-1.781V471.341a2.046,2.046,0,0,0-1.239-1.79h0Z" transform="translate(45.636 -302.542)" fill="none" stroke="#fff" stroke-width="1.5"/>
    <path id="Caminho_8117" data-name="Caminho 8117" d="M34.692,313.123h0a2.919,2.919,0,0,0-2.585.009,2.021,2.021,0,0,0-1.216,1.781v47.936a2.041,2.041,0,0,0,1.239,1.79h0l35.024,17.25h0a2.919,2.919,0,0,0,2.585-.009,2.021,2.021,0,0,0,1.216-1.781V332.134a2.048,2.048,0,0,0-1.239-1.79h0Z" transform="translate(131.44 -292.364)" fill="none" stroke="#fff" stroke-width="1.5"/>
    <path id="Caminho_8118" data-name="Caminho 8118" d="M115.366,386.016h0a2.946,2.946,0,0,0,2.575-.008h0l34.815-17.344h0a1.915,1.915,0,0,0-.014-3.577h0l-34.939-17.182h0a2.966,2.966,0,0,0-2.577.007h0L80.356,365.277a1.917,1.917,0,0,0,.013,3.581h0Z" transform="translate(3.702 -294.908)" fill="none" stroke="#fff" stroke-width="1.5"/>
    <path id="Caminho_8119" data-name="Caminho 8119" d="M-9,471.617h0l35,17.158h0a2.966,2.966,0,0,0,2.577-.012h0l34.815-17.343h0a1.915,1.915,0,0,0-.014-3.577h0L28.435,450.665h0a2.965,2.965,0,0,0-2.576.007h0L-9.014,468.035a2.017,2.017,0,0,0-1.227,1.8A2.019,2.019,0,0,0-9,471.617Z" transform="translate(175.909 -302.421)" fill="none" stroke="#fff" stroke-width="1.5"/>
    <path id="Caminho_8120" data-name="Caminho 8120" d="M-53.647,493.692h0l35,17.158h0a2.948,2.948,0,0,0,2.574-.011h0l34.815-17.344h0a1.915,1.915,0,0,0-.014-3.577h0L-16.211,472.74h0a2.965,2.965,0,0,0-2.576.007h0L-53.66,490.111a2.015,2.015,0,0,0-1.227,1.794A2.019,2.019,0,0,0-53.647,493.692Z" transform="translate(261.936 -304.035)" fill="none" stroke="#fff" stroke-width="1.5"/>
    <path id="Caminho_8121" data-name="Caminho 8121" d="M169.734,471.58h0l35,17.158a2.967,2.967,0,0,0,2.577-.012h0l34.815-17.344h0a1.915,1.915,0,0,0-.014-3.577h0L207.17,450.628h0a2.963,2.963,0,0,0-2.577.007h0L169.721,468a1.917,1.917,0,0,0,.013,3.581Z" transform="translate(-168.494 -302.418)" fill="none" stroke="#fff" stroke-width="1.5"/>
    <path id="Caminho_8122" data-name="Caminho 8122" d="M123.946,462.566h0l35.023-17.25a2.05,2.05,0,0,0,1.235-1.791V395.559a2.021,2.021,0,0,0-1.216-1.781,2.922,2.922,0,0,0-2.585-.01h0l-35.023,17.25a2.052,2.052,0,0,0-1.235,1.791v47.965a2.021,2.021,0,0,0,1.216,1.781A2.922,2.922,0,0,0,123.946,462.566Z" transform="translate(-40.538 -298.261)" fill="none" stroke="#fff" stroke-width="1.5"/>
    <path id="Caminho_8123" data-name="Caminho 8123" d="M168.708,543.207h0l35.024-17.25a2.051,2.051,0,0,0,1.234-1.791V476.2a2.021,2.021,0,0,0-1.215-1.781,2.922,2.922,0,0,0-2.585-.01h0l-35.023,17.25a2.052,2.052,0,0,0-1.235,1.791v47.965a2.021,2.021,0,0,0,1.216,1.781A2.922,2.922,0,0,0,168.708,543.207Z" transform="translate(-126.79 -304.156)" fill="none" stroke="#fff" stroke-width="1.5"/>
    <path id="Caminho_8124" data-name="Caminho 8124" d="M108.742,552.628h0l-35-17.158h0a2.978,2.978,0,0,0-2.578.008h0L36.355,552.822h0a1.915,1.915,0,0,0,.014,3.577h0L71.306,573.58a2.963,2.963,0,0,0,2.577-.007h0l34.872-17.363a1.916,1.916,0,0,0-.013-3.581Z" transform="translate(88.481 -308.621)" fill="none" stroke="#fff" stroke-width="1.5"/>
  </g>
</svg>
