<svg xmlns="http://www.w3.org/2000/svg" width="336.53" height="298" viewBox="0 0 336.53 298">
  <g id="Grupo_1208" data-name="Grupo 1208" opacity="0.7">
    <g id="Vector" transform="translate(167.99 0)" fill="none">
      <path d="M32.939,43.943,3.973,58.21C2.2,59.083,0,57.976,0,56.214V16.544a2.266,2.266,0,0,1,1.346-2L30.313.3c1.771-.873,3.973.234,3.973,2V41.946a2.266,2.266,0,0,1-1.346,2Z" stroke="none"/>
      <path d="M 2.661338806152344 57.01498794555664 C 2.889248847961426 57.01498794555664 3.107298851013184 56.9644775390625 3.309778690338135 56.86468887329102 L 32.27869033813477 42.59643936157227 C 32.59127807617188 42.44304656982422 32.78546905517578 42.19398880004883 32.78546905517578 41.94644927978516 L 32.78546905517578 2.301287889480591 C 32.78546905517578 1.829077839851379 32.17341995239258 1.500007748603821 31.62411880493164 1.500007748603821 C 31.39620971679688 1.500007748603821 31.17815971374512 1.550517797470093 30.97477912902832 1.650757789611816 L 2.006748914718628 15.89429759979248 C 1.69416880607605 16.04768753051758 1.499988794326782 16.2967472076416 1.499988794326782 16.54429817199707 L 1.499988794326782 56.21370697021484 C 1.499988794326782 56.68591690063477 2.112038850784302 57.01498794555664 2.661338806152344 57.01498794555664 M 2.661340236663818 58.51499176025391 C 1.272687315940857 58.51499176025391 -1.119445823860588e-05 57.55363464355469 -1.119445823860588e-05 56.21370697021484 L -1.119445823860588e-05 16.54429817199707 C -1.119445823860588e-05 15.71978759765625 0.5140687823295593 14.95589733123779 1.345968842506409 14.54768753051758 L 30.31290817260742 0.3046777844429016 C 32.08420562744141 -0.5683335065841675 34.28546905517578 0.5390985608100891 34.28546905517578 2.301287889480591 L 34.28546905517578 41.94644927978516 C 34.28546905517578 42.77094650268555 33.77136993408203 43.53483963012695 32.93946838378906 43.94304656982422 L 32.93946838378906 43.94305801391602 L 3.972548723220825 58.21031951904297 C 3.548105239868164 58.41951370239258 3.098958969116211 58.51499176025391 2.661340236663818 58.51499176025391 Z" stroke="none" fill="#d1d1d1"/>
    </g>
    <g id="Vector-2" data-name="Vector" transform="translate(202.126 61.818)" fill="none">
      <path d="M32.939,43.943,3.973,58.21C2.2,59.083,0,57.976,0,56.214V16.544a2.266,2.266,0,0,1,1.346-2L30.313.3c1.771-.873,3.973.234,3.973,2V41.946a2.266,2.266,0,0,1-1.346,2Z" stroke="none"/>
      <path d="M 2.661338806152344 57.01498413085938 C 2.889248847961426 57.01498413085938 3.107298851013184 56.96447372436523 3.309778690338135 56.86468505859375 L 32.27869033813477 42.59645462036133 C 32.59127807617188 42.44306182861328 32.78546905517578 42.19400405883789 32.78546905517578 41.94646453857422 L 32.78546905517578 2.301293611526489 C 32.78546905517578 1.829093456268311 32.17341995239258 1.500023484230042 31.62411880493164 1.500023484230042 C 31.39620971679688 1.500023484230042 31.17815971374512 1.550533533096313 30.97477912902832 1.650773525238037 L 2.006778717041016 15.89429378509521 C 1.694178819656372 16.04768371582031 1.499988794326782 16.2967529296875 1.499988794326782 16.5442943572998 L 1.499988794326782 56.21370315551758 C 1.499988794326782 56.6859130859375 2.112038850784302 57.01498413085938 2.661338806152344 57.01498413085938 M 2.661340236663818 58.51498794555664 C 1.272687315940857 58.51498794555664 -1.119445823860588e-05 57.55363082885742 -1.119445823860588e-05 56.21370315551758 L -1.119445823860588e-05 16.5442943572998 C -1.119445823860588e-05 15.71978378295898 0.5140888094902039 14.95590305328369 1.345988750457764 14.54768371582031 L 30.31290817260742 0.3046935200691223 C 32.08420181274414 -0.5683168172836304 34.28547286987305 0.5391137003898621 34.28546905517578 2.301293611526489 L 34.28546905517578 41.94646453857422 C 34.28546905517578 42.77097320556641 33.77136993408203 43.53485488891602 32.93946838378906 43.94306182861328 L 3.972548723220825 58.21031188964844 C 3.548105239868164 58.41950607299805 3.098958969116211 58.51498794555664 2.661340236663818 58.51498794555664 Z" stroke="none" fill="#d1d1d1"/>
    </g>
    <g id="Vector-3" data-name="Vector" transform="translate(136.459 60.546)" fill="none">
      <path d="M30.124,32.839,1.33,18.495a2.156,2.156,0,0,1,.014-3.989L30.241.3a3.027,3.027,0,0,1,2.641.008l28.841,14.36a2.157,2.157,0,0,1-.014,3.993L32.765,32.851a3.027,3.027,0,0,1-2.641-.012Z" stroke="none"/>
      <path d="M 31.45817756652832 31.64816284179688 C 31.68851852416992 31.64816284179688 31.91239929199219 31.59819221496582 32.10447692871094 31.50422286987305 L 61.04836654663086 17.31361198425293 C 61.3702278137207 17.15591239929199 61.5553092956543 16.91863250732422 61.55613708496094 16.66263198852539 C 61.55696868896484 16.40737342834473 61.37382888793945 16.16953277587891 61.05381774902344 16.01015281677246 L 32.21176910400391 1.649292826652527 C 32.01608657836914 1.551622748374939 31.78882789611816 1.50000274181366 31.55453872680664 1.50000274181366 C 31.32241821289062 1.50000274181366 31.09617805480957 1.550662755966187 30.90288925170898 1.645222783088684 L 2.005648374557495 15.85204315185547 C 1.684898376464844 16.00961303710938 1.500598430633545 16.24712371826172 1.499998331069946 16.5036735534668 C 1.499398350715637 16.75791358947754 1.680878400802612 16.99410247802734 1.999058365821838 17.15226364135742 L 30.79411888122559 31.4968433380127 C 30.99246788024902 31.59583282470703 31.22208786010742 31.64816284179688 31.45817756652832 31.64816284179688 M 31.45817565917969 33.14816665649414 C 30.99794960021973 33.14816665649414 30.53728103637695 33.04510116577148 30.12424850463867 32.83895111083984 L 30.12424850463867 32.83894348144531 L 1.330218434333801 18.49489212036133 C -0.4504116177558899 17.60976219177246 -0.4410616159439087 15.38277244567871 1.344258427619934 14.50572299957275 L 30.24109840393066 0.299102783203125 C 31.05896949768066 -0.1010269448161125 32.06377410888672 -0.1010275110602379 32.88164901733398 0.307182788848877 L 61.72239685058594 14.66739273071289 C 63.50771713256836 15.55656242370605 63.49835968017578 17.7835521697998 61.70837020874023 18.66061210632324 L 32.76480865478516 32.8510627746582 C 32.35996246337891 33.04912567138672 31.90928077697754 33.14816665649414 31.45817565917969 33.14816665649414 Z" stroke="none" fill="#d1d1d1"/>
    </g>
    <g id="Vector-4" data-name="Vector" transform="translate(273.474 60.518)" fill="none">
      <path d="M30.124,32.839,1.33,18.495a2.156,2.156,0,0,1,.014-3.989L30.241.3a3.027,3.027,0,0,1,2.641.008l28.841,14.36a2.157,2.157,0,0,1-.014,3.993L32.765,32.851a3.027,3.027,0,0,1-2.641-.012Z" stroke="none"/>
      <path d="M 31.45816612243652 31.64814949035645 C 31.68851661682129 31.64814949035645 31.91240692138672 31.59817886352539 32.10448837280273 31.50420951843262 L 61.04834747314453 17.3135986328125 C 61.37020874023438 17.15589904785156 61.55527877807617 16.91862869262695 61.55610656738281 16.66263008117676 C 61.55693817138672 16.40737915039062 61.37379837036133 16.1695384979248 61.05379867553711 16.01015853881836 L 32.21177673339844 1.649299383163452 C 32.01608657836914 1.551629424095154 31.7888069152832 1.499999403953552 31.55449676513672 1.499999403953552 C 31.32236671447754 1.499999403953552 31.09613609313965 1.550649404525757 30.90285682678223 1.645209431648254 L 2.005656957626343 15.85201930999756 C 1.684906959533691 16.00959014892578 1.500596880912781 16.24711036682129 1.499996900558472 16.50366973876953 C 1.499406933784485 16.75790977478027 1.68088698387146 16.99409866333008 1.999076962471008 17.15226936340332 L 30.79409599304199 31.49682998657227 C 30.99244689941406 31.5958194732666 31.22207641601562 31.64814949035645 31.45816612243652 31.64814949035645 M 31.45816612243652 33.14815139770508 C 30.9979305267334 33.14815139770508 30.53725433349609 33.04508590698242 30.12422752380371 32.83893966674805 L 30.12421607971191 32.83892822265625 L 1.330236911773682 18.49489974975586 C -0.4504130780696869 17.60976028442383 -0.4410530626773834 15.38276958465576 1.34425687789917 14.50570964813232 L 30.24106597900391 0.2990894317626953 C 31.05894088745117 -0.1010416299104691 32.06377792358398 -0.1010294929146767 32.88165664672852 0.3071894347667694 L 61.72237777709961 14.66739940643311 C 63.50768661499023 15.55656909942627 63.49833679199219 17.78355026245117 61.70834732055664 18.66059875488281 L 32.76481628417969 32.85105133056641 C 32.35997009277344 33.04911041259766 31.90927886962891 33.14815139770508 31.45816612243652 33.14815139770508 Z" stroke="none" fill="#d1d1d1"/>
    </g>
    <g id="Vector-5" data-name="Vector" transform="translate(236.411 16.927)" fill="none">
      <path d="M3.973.3,32.939,14.572a2.269,2.269,0,0,1,1.341,2V56.238c0,1.762-2.2,2.87-3.973,2L1.341,43.967a2.269,2.269,0,0,1-1.341-2V2.3C0,.539,2.2-.568,3.973.3Z" stroke="none"/>
      <path d="M 2.661493301391602 1.500015258789062 C 2.112125396728516 1.500076293945312 1.499992370605469 1.829154968261719 1.499992370605469 2.301284790039062 L 1.499992370605469 41.97069549560547 C 1.499992370605469 42.21503448486328 1.698265075683594 42.47075653076172 2.004093170166016 42.62167358398438 L 30.97137451171875 56.88910293579102 C 31.17349433898926 56.98872375488281 31.39154434204102 57.03923416137695 31.61944389343262 57.03923416137695 C 32.16874313354492 57.03923416137695 32.78079605102539 56.71015548706055 32.78079605102539 56.23794555664062 L 32.78079605102539 16.56852340698242 C 32.78079605102539 16.32419586181641 32.58252334594727 16.06848526000977 32.27669525146484 15.91755294799805 L 3.309413909912109 1.650135040283203 C 3.107254028320312 1.550495147705078 2.889265060424805 1.499984741210938 2.661514282226562 1.500015258789062 L 2.661493301391602 1.500015258789062 M 2.661340713500977 1.1444091796875e-05 C 3.099065780639648 -3.4332275390625e-05 3.548000335693359 0.09543609619140625 3.972555160522461 0.3046836853027344 L 3.972555160522461 0.3046760559082031 L 32.9394645690918 14.57192611694336 C 33.76669311523438 14.98014450073242 34.28079605102539 15.74401473999023 34.28079605102539 16.56852340698242 L 34.28079605102539 56.23794555664062 C 34.28079605102539 58.0001335144043 32.07952499389648 59.10757446289062 30.30823516845703 58.23455429077148 L 1.341323852539062 43.96730422973633 C 0.5140953063964844 43.5590934753418 -7.62939453125e-06 42.79520416259766 -7.62939453125e-06 41.97069549560547 L -7.62939453125e-06 2.301284790039062 C -7.62939453125e-06 0.9614715576171875 1.272815704345703 0.000156402587890625 2.661340713500977 1.1444091796875e-05 Z" stroke="none" fill="#d1d1d1"/>
    </g>
    <g id="Vector-6" data-name="Vector" transform="translate(270.724 78.745)" fill="none">
      <path d="M3.973.3,32.939,14.572a2.269,2.269,0,0,1,1.341,2V56.238c0,1.762-2.2,2.87-3.973,2L1.341,43.967a2.269,2.269,0,0,1-1.341-2V2.3C0,.539,2.2-.568,3.973.3Z" stroke="none"/>
      <path d="M 2.661334991455078 1.499988555908203 C 2.112033843994141 1.499988555908203 1.499992370605469 1.829059600830078 1.499992370605469 2.30126953125 L 1.499992370605469 41.97069931030273 C 1.499992370605469 42.21502685546875 1.698265075683594 42.47074890136719 2.004093170166016 42.62166976928711 L 30.97137451171875 56.88909912109375 C 31.17348480224609 56.98870849609375 31.39152526855469 57.03921890258789 31.61944389343262 57.03921890258789 C 32.16874313354492 57.03921890258789 32.78079605102539 56.71014785766602 32.78079605102539 56.23793792724609 L 32.78079605102539 16.56853103637695 C 32.78079605102539 16.32419967651367 32.58252334594727 16.06847763061523 32.27669525146484 15.91756057739258 L 3.309413909912109 1.650119781494141 C 3.107294082641602 1.550498962402344 2.889244079589844 1.499988555908203 2.661334991455078 1.499988555908203 M 2.661334991455078 -7.62939453125e-06 C 3.09906005859375 -7.62939453125e-06 3.548000335693359 0.09542083740234375 3.972555160522461 0.3046684265136719 L 32.9394645690918 14.57192993164062 C 33.76669311523438 14.98014068603516 34.28079605102539 15.7440185546875 34.28079605102539 16.56853103637695 L 34.28079605102539 56.23793792724609 C 34.28079605102539 58.00012969970703 32.07952499389648 59.10755920410156 30.30823516845703 58.23455047607422 L 1.341323852539062 43.96730041503906 C 0.5140953063964844 43.55908966064453 -7.62939453125e-06 42.79520034790039 -7.62939453125e-06 41.97069931030273 L -7.62939453125e-06 2.30126953125 C -7.62939453125e-06 0.9614486694335938 1.272811889648438 -7.62939453125e-06 2.661334991455078 -7.62939453125e-06 Z" stroke="none" fill="#d1d1d1"/>
    </g>
    <g id="Vector-7" data-name="Vector" transform="translate(134.255 177.665)" fill="none">
      <path d="M1.346,14.572,30.313.3c1.771-.873,3.973.234,3.973,2V41.971a2.266,2.266,0,0,1-1.346,2L3.973,58.21C2.2,59.083,0,57.976,0,56.214V16.569a2.253,2.253,0,0,1,1.346-2Z" stroke="none"/>
      <path d="M 31.62415313720703 1.500011444091797 C 31.39624404907227 1.500011444091797 31.17819404602051 1.550521850585938 30.9757137298584 1.650310516357422 L 2.003803253173828 15.92000198364258 C 1.688335418701172 16.07394027709961 1.499992370605469 16.31638336181641 1.499992370605469 16.56854248046875 L 1.499992370605469 56.21369171142578 C 1.499992370605469 56.6859016418457 2.112033843994141 57.01497268676758 2.661334991455078 57.01497268676758 C 2.889244079589844 57.01497268676758 3.107294082641602 56.96446228027344 3.310674667358398 56.86422348022461 L 32.27870559692383 42.62070083618164 C 32.59130477905273 42.46731185913086 32.78549575805664 42.21824264526367 32.78549575805664 41.970703125 L 32.78549575805664 2.301280975341797 C 32.78549575805664 2.117691040039062 32.69550323486328 1.949962615966797 32.51801300048828 1.802772521972656 C 32.28942489624023 1.613193511962891 31.95527458190918 1.500011444091797 31.62416458129883 1.500011444091797 L 31.62415313720703 1.500011444091797 M 31.6241512298584 7.62939453125e-06 C 33.01280212402344 0 34.28549575805664 0.9613609313964844 34.28549575805664 2.301280975341797 L 34.28549575805664 41.970703125 C 34.28549575805664 42.79521179199219 33.77140426635742 43.5590934753418 32.93949508666992 43.96731185913086 L 3.972543716430664 58.21030044555664 C 2.201248168945312 59.08331298828125 -7.62939453125e-06 57.97588348388672 -7.62939453125e-06 56.21369171142578 L -7.62939453125e-06 16.56854248046875 C -7.62939453125e-06 15.739990234375 0.5094223022460938 14.98015213012695 1.345993041992188 14.57193374633789 L 1.345993041992188 14.57194137573242 L 30.31294441223145 0.3046836853027344 C 30.73738861083984 0.095489501953125 31.1865348815918 1.1444091796875e-05 31.6241512298584 7.62939453125e-06 Z" stroke="none" fill="#d1d1d1"/>
    </g>
    <g id="Vector-8" data-name="Vector" transform="translate(134.255 222.557)" fill="none">
      <path d="M1.346,14.572,30.313.3c1.771-.873,3.973.234,3.973,2V41.971a2.267,2.267,0,0,1-1.346,2L3.973,58.214C2.2,59.083,0,57.976,0,56.214V16.569a2.257,2.257,0,0,1,1.346-2Z" stroke="none"/>
      <path d="M 31.62415313720703 1.500015258789062 C 31.39624404907227 1.500015258789062 31.17819404602051 1.550521850585938 30.9757137298584 1.650314331054688 L 2.003795623779297 15.91999435424805 C 1.693042755126953 16.07163238525391 1.499992370605469 16.32013320922852 1.499992370605469 16.56852340698242 L 1.499992370605469 56.21371459960938 C 1.499992370605469 56.68697357177734 2.11407470703125 57.01677322387695 2.665193557739258 57.01677322387695 C 2.892663955688477 57.01677322387695 3.110233306884766 56.96661376953125 3.310674667358398 56.86828231811523 L 32.27872467041016 42.6247444152832 C 32.59131240844727 42.47136306762695 32.78549575805664 42.22075271606445 32.78549575805664 41.97071075439453 L 32.78549575805664 2.301284790039062 C 32.78549575805664 1.829082489013672 32.17345428466797 1.500015258789062 31.62415313720703 1.500015258789062 M 31.6241512298584 7.62939453125e-06 C 33.01280212402344 7.62939453125e-06 34.28549575805664 0.96136474609375 34.28549575805664 2.301284790039062 L 34.28549575805664 41.97071075439453 C 34.28549575805664 42.79926300048828 33.77140426635742 43.56315231323242 32.93949508666992 43.97136306762695 L 3.972543716430664 58.21436309814453 C 2.201255798339844 59.08333206176758 -7.62939453125e-06 57.97589492797852 -7.62939453125e-06 56.21371459960938 L -7.62939453125e-06 16.56852340698242 C -7.62939453125e-06 15.74401473999023 0.5094223022460938 14.98013305664062 1.345993041992188 14.57192230224609 L 30.31294441223145 0.3046836853027344 C 30.73738861083984 0.095489501953125 31.1865348815918 7.62939453125e-06 31.6241512298584 7.62939453125e-06 Z" stroke="none" fill="#d1d1d1"/>
    </g>
    <g id="Vector-9" data-name="Vector" transform="translate(137.016 142.484)" fill="none">
      <path d="M32.932.311,61.726,14.655a2.156,2.156,0,0,1-.014,3.989l-28.9,14.207a3.027,3.027,0,0,1-2.641-.008L1.334,18.482a2.157,2.157,0,0,1,.014-3.993L30.291.3a3.013,3.013,0,0,1,2.641.012Z" stroke="none"/>
      <path d="M 31.60140800476074 1.499994277954102 C 31.37079811096191 1.499994277954102 31.14572906494141 1.550474166870117 30.95166015625 1.645423889160156 L 2.007770538330078 15.8360538482666 C 1.685909271240234 15.99375343322754 1.500827789306641 16.23102378845215 1.5 16.48702430725098 C 1.499168395996094 16.74226379394531 1.682308197021484 16.98010444641113 2.0023193359375 17.13948440551758 L 30.8443603515625 31.50035285949707 C 31.0400505065918 31.59802436828613 31.2673282623291 31.64965438842773 31.50162887573242 31.64965438842773 C 31.73376846313477 31.64965438842773 31.96000862121582 31.59900283813477 32.15327835083008 31.50444412231445 L 61.05047988891602 17.29762268066406 C 61.37123870849609 17.14004325866699 61.55553817749023 16.90253257751465 61.55613708496094 16.64597320556641 C 61.55673980712891 16.39174270629883 61.37524795532227 16.15555381774902 61.05707931518555 15.99739265441895 L 32.25674819946289 1.650173187255859 C 32.06183624267578 1.551923751831055 31.83522796630859 1.499994277954102 31.60140800476074 1.499994277954102 M 31.60141181945801 -1.1444091796875e-05 C 32.06053924560547 -1.1444091796875e-05 32.51988983154297 0.10302734375 32.93191909790039 0.3107147216796875 L 32.93191909790039 0.3107223510742188 L 61.72591781616211 14.65476417541504 C 63.50654983520508 15.53989410400391 63.49718856811523 17.76687240600586 61.71187973022461 18.6439323425293 L 32.81507873535156 32.85056304931641 C 31.99720191955566 33.25069046020508 30.99236297607422 33.25068664550781 30.17448806762695 32.84247207641602 L 1.333740234375 18.48224258422852 C -0.4515800476074219 17.59307479858398 -0.4422225952148438 15.36611366271973 1.347766876220703 14.48905372619629 L 30.29132843017578 0.298583984375 C 30.69717407226562 0.1000328063964844 31.14918518066406 -1.1444091796875e-05 31.60141181945801 -1.1444091796875e-05 Z" stroke="none" fill="#d1d1d1"/>
    </g>
    <g id="Vector-10" data-name="Vector" transform="translate(171.24 125.558)" fill="none">
      <path d="M32.932.306,61.726,14.65a2.156,2.156,0,0,1-.014,3.989L32.815,32.85a3.027,3.027,0,0,1-2.641-.008L1.334,18.481a2.157,2.157,0,0,1,.014-3.993L30.291.3a3.041,3.041,0,0,1,2.641.008Z" stroke="none"/>
      <path d="M 31.60127449035645 1.499984741210938 C 31.36939430236816 1.499984741210938 31.14436531066895 1.550113677978516 30.95163345336914 1.644414901733398 L 2.007755279541016 15.83504486083984 C 1.685905456542969 15.99274444580078 1.500835418701172 16.23001480102539 1.500003814697266 16.48600387573242 C 1.499176025390625 16.74127388000488 1.682315826416016 16.97912406921387 2.002323150634766 17.13850402832031 L 30.84432601928711 31.49934387207031 C 31.04003524780273 31.59701538085938 31.26732444763184 31.64864540100098 31.50162506103516 31.64864540100098 C 31.7337646484375 31.64864540100098 31.95999526977539 31.59799385070801 32.15311431884766 31.50351524353027 L 61.05050659179688 17.29257583618164 C 61.37124633789062 17.1350040435791 61.55553436279297 16.89749526977539 61.55613327026367 16.64094543457031 C 61.55673599243164 16.38671493530273 61.375244140625 16.15051460266113 61.05705642700195 15.99234390258789 L 32.26736450195312 1.650434494018555 C 32.06819534301758 1.552003860473633 31.83786582946777 1.499984741210938 31.60127449035645 1.499984741210938 M 31.60127830505371 -1.52587890625e-05 C 32.06040191650391 -1.52587890625e-05 32.51986694335938 0.10205078125 32.93189239501953 0.3056640625 L 32.93190765380859 0.3056755065917969 L 61.72589492797852 14.64971542358398 C 63.50653457641602 15.53484535217285 63.4972038269043 17.76183319091797 61.71189498901367 18.63888549804688 L 32.8150634765625 32.84955596923828 C 31.99718475341797 33.24969482421875 30.99234771728516 33.24967575073242 30.17447662353516 32.84146499633789 L 1.333744049072266 18.48126411437988 C -0.4515647888183594 17.59208488464355 -0.4422340393066406 15.36510467529297 1.347755432128906 14.48804473876953 L 30.29130554199219 0.2975730895996094 C 30.69715118408203 0.09901809692382812 31.14905166625977 -1.52587890625e-05 31.60127830505371 -1.52587890625e-05 Z" stroke="none" fill="#d1d1d1"/>
    </g>
    <g id="Vector-11" data-name="Vector" transform="translate(102.234 77.469)" fill="none">
      <path d="M30.124,32.839,1.33,18.495a2.156,2.156,0,0,1,.014-3.989L30.241.3a3.027,3.027,0,0,1,2.641.008l28.841,14.36a2.157,2.157,0,0,1-.014,3.993L32.765,32.851a3.013,3.013,0,0,1-2.641-.012Z" stroke="none"/>
      <path d="M 31.45469093322754 31.64963150024414 C 31.68531036376953 31.64963150024414 31.910400390625 31.59915161132812 32.1044807434082 31.50419235229492 L 61.04837036132812 17.3135814666748 C 61.37023162841797 17.15588188171387 61.55530166625977 16.91861152648926 61.55612945556641 16.66261100769043 C 61.55696105957031 16.40735244750977 61.37382125854492 16.16951179504395 61.0538215637207 16.0101318359375 L 32.2117805480957 1.649291753768921 C 32.01609039306641 1.551621794700623 31.78881072998047 1.499991774559021 31.55451011657715 1.499991774559021 C 31.3223705291748 1.499991774559021 31.09613037109375 1.550641775131226 30.90286064147949 1.645201802253723 L 2.005650281906128 15.85202217102051 C 1.684900283813477 16.00960159301758 1.500600337982178 16.24711227416992 1.500000238418579 16.50367164611816 C 1.49940025806427 16.75790214538574 1.680890321731567 16.99409103393555 1.999070286750793 17.15225219726562 L 30.79939079284668 31.49946212768555 C 30.99428939819336 31.59770202636719 31.22088050842285 31.64963150024414 31.45469093322754 31.64963150024414 M 31.45469284057617 33.14963531494141 C 30.99556732177734 33.14963531494141 30.53625106811523 33.04660797119141 30.12421989440918 32.83892059326172 L 1.330230236053467 18.49488258361816 C -0.4504097104072571 17.6097526550293 -0.4410597085952759 15.38277149200439 1.344260334968567 14.50571155548096 L 30.24106025695801 0.2990818023681641 C 31.05893898010254 -0.101047582924366 32.06378173828125 -0.1010388359427452 32.88164901733398 0.3071717917919159 L 61.7224006652832 14.66737174987793 C 63.50770950317383 15.55654144287109 63.49835968017578 17.78353118896484 61.70837020874023 18.66058158874512 L 32.76480865478516 32.85103225708008 C 32.35896682739258 33.04958343505859 31.90691947937012 33.14963531494141 31.45469284057617 33.14963531494141 Z" stroke="none" fill="#d1d1d1"/>
    </g>
    <g id="Vector-12" data-name="Vector" transform="translate(31.521 239.487)" fill="none">
      <path d="M1.346,14.572,30.313.3c1.771-.873,3.973.234,3.973,2V41.971a2.266,2.266,0,0,1-1.346,2L3.973,58.21C2.2,59.079,0,57.972,0,56.21V16.564a2.251,2.251,0,0,1,1.346-1.993Z" stroke="none"/>
      <path d="M 31.62410926818848 1.500007629394531 C 31.39619827270508 1.500007629394531 31.17815780639648 1.550514221191406 30.97567939758301 1.650306701660156 L 2.001457214355469 15.92111587524414 C 1.692138671875 16.07139587402344 1.499988555908203 16.31791687011719 1.499988555908203 16.56447601318359 L 1.499988555908203 56.20963668823242 C 1.499988555908203 56.68290710449219 2.114078521728516 57.01271438598633 2.66520881652832 57.01271438598633 C 2.892669677734375 57.01271438598633 3.110239028930664 56.96255493164062 3.310678482055664 56.86422729492188 L 32.27867889404297 42.62070465087891 C 32.59127807617188 42.46731567382812 32.78546905517578 42.21824645996094 32.78546905517578 41.97070693969727 L 32.78546905517578 2.301284790039062 C 32.78546905517578 1.829074859619141 32.17341995239258 1.500007629394531 31.62410926818848 1.500007629394531 M 31.62410926818848 7.62939453125e-06 C 33.01276016235352 3.814697265625e-06 34.28546905517578 0.9613685607910156 34.28546905517578 2.301284790039062 L 34.28546905517578 41.97070693969727 C 34.28546905517578 42.79521560668945 33.77136993408203 43.55909729003906 32.93946838378906 43.96731567382812 L 3.972549438476562 58.21030426025391 C 2.201248168945312 59.07927703857422 -1.1444091796875e-05 57.9718132019043 -1.1444091796875e-05 56.20963668823242 L -1.1444091796875e-05 16.56447601318359 C -1.1444091796875e-05 15.73592758178711 0.514068603515625 14.9760856628418 1.345970153808594 14.57191467285156 L 1.345970153808594 14.57192611694336 L 30.31290817260742 0.3046760559082031 C 30.73735237121582 0.09548568725585938 31.18648910522461 7.62939453125e-06 31.62410926818848 7.62939453125e-06 Z" stroke="none" fill="#d1d1d1"/>
    </g>
    <g id="Vector-13" data-name="Vector" transform="translate(100.12 115.848)" fill="none">
      <path d="M1.346,14.572,30.313.3c1.771-.873,3.973.234,3.973,2V41.971a2.266,2.266,0,0,1-1.346,2L3.973,58.21C2.2,59.083,0,57.976,0,56.214V16.569a2.261,2.261,0,0,1,1.346-2Z" stroke="none"/>
      <path d="M 31.62411880493164 1.500011444091797 C 31.39620971679688 1.500011444091797 31.17815780639648 1.550521850585938 30.97567939758301 1.650310516357422 L 2.006767272949219 15.91854095458984 C 1.694179534912109 16.07192993164062 1.499988555908203 16.32099151611328 1.499988555908203 16.56853103637695 L 1.499988555908203 56.21369171142578 C 1.499988555908203 56.68589019775391 2.112037658691406 57.01496124267578 2.661338806152344 57.01496124267578 C 2.889247894287109 57.01496124267578 3.107297897338867 56.96445083618164 3.310678482055664 56.86421203613281 L 32.27869033813477 42.62068176269531 C 32.59127807617188 42.46729278564453 32.78546905517578 42.21823120117188 32.78546905517578 41.97068786621094 L 32.78546905517578 2.301280975341797 C 32.78546905517578 2.117691040039062 32.69548034667969 1.949958801269531 32.51799011230469 1.802768707275391 C 32.28939819335938 1.613189697265625 31.95523834228516 1.500011444091797 31.6241283416748 1.500011444091797 L 31.62411880493164 1.500011444091797 M 31.62412261962891 7.62939453125e-06 C 33.01277542114258 0 34.28546905517578 0.9613609313964844 34.28546905517578 2.301280975341797 L 34.28546905517578 41.97068786621094 C 34.28546905517578 42.79518890380859 33.77136993408203 43.55908203125 32.93946838378906 43.96728897094727 L 3.972549438476562 58.21028900146484 C 2.201255798339844 59.08330154418945 -1.52587890625e-05 57.97586822509766 -1.1444091796875e-05 56.21369171142578 L -1.1444091796875e-05 16.56853103637695 C -1.1444091796875e-05 15.7399787902832 0.5140876770019531 14.98014068603516 1.345989227294922 14.57192993164062 L 1.346000671386719 14.57192993164062 L 30.31290817260742 0.3046798706054688 C 30.73735427856445 0.09548568725585938 31.18650436401367 7.62939453125e-06 31.62412261962891 7.62939453125e-06 Z" stroke="none" fill="#d1d1d1"/>
    </g>
    <g id="Vector-14" data-name="Vector" transform="translate(68.506 221.254)" fill="none">
      <path d="M32.932.306,61.726,14.65a2.156,2.156,0,0,1-.014,3.989L32.815,32.85a3.027,3.027,0,0,1-2.641-.008L1.334,18.481a2.157,2.157,0,0,1,.014-3.993L30.291.3a3.041,3.041,0,0,1,2.641.008Z" stroke="none"/>
      <path d="M 31.60126495361328 1.499998092651367 C 31.369384765625 1.499998092651367 31.14435577392578 1.550128936767578 30.95163345336914 1.644418716430664 L 2.007755279541016 15.83502769470215 C 1.685905456542969 15.99272918701172 1.500835418701172 16.2299976348877 1.500003814697266 16.48599815368652 C 1.499176025390625 16.74125862121582 1.682315826416016 16.9791088104248 2.002323150634766 17.13848876953125 L 30.84434509277344 31.49934768676758 C 31.04001617431641 31.59701919555664 31.26728439331055 31.64863777160645 31.50156402587891 31.64863777160645 C 31.73371505737305 31.64863777160645 31.95997428894043 31.59797859191895 32.15311431884766 31.50348854064941 L 61.05050659179688 17.29257965087891 C 61.37124633789062 17.13500785827637 61.55553436279297 16.89749908447266 61.55613327026367 16.64094924926758 C 61.55673599243164 16.38670921325684 61.375244140625 16.15050888061523 61.05705642700195 15.99233818054199 L 32.26736450195312 1.650447845458984 C 32.06819534301758 1.552019119262695 31.83785438537598 1.499998092651367 31.60126495361328 1.499998092651367 M 31.60127067565918 0 C 32.06039428710938 0 32.51986694335938 0.1020622253417969 32.93189239501953 0.3056793212890625 L 32.93190765380859 0.3056793212890625 L 61.72589492797852 14.64970779418945 C 63.50653457641602 15.53484916687012 63.4972038269043 17.76183700561523 61.71189498901367 18.63888931274414 L 32.8150634765625 32.84952926635742 C 31.99718284606934 33.24966812133789 30.99235153198242 33.24968719482422 30.17447662353516 32.84146881103516 L 1.333744049072266 18.48124694824219 C -0.4515647888183594 17.59207916259766 -0.4422340393066406 15.36508750915527 1.347755432128906 14.48802757263184 L 30.29130554199219 0.297576904296875 C 30.69715118408203 0.09902572631835938 31.1490421295166 0 31.60127067565918 0 Z" stroke="none" fill="#d1d1d1"/>
    </g>
    <g id="Vector-15" data-name="Vector" transform="translate(0 142.511)" fill="none">
      <path d="M32.932.312,61.726,14.656a2.156,2.156,0,0,1-.014,3.989l-28.9,14.207a3.027,3.027,0,0,1-2.641-.008L1.334,18.484a2.157,2.157,0,0,1,.014-3.993L30.291.3a3,3,0,0,1,2.641.012Z" stroke="none"/>
      <path d="M 31.59807014465332 1.49998664855957 C 31.36976051330566 1.49998664855957 31.14770126342773 1.550086975097656 30.9516716003418 1.646957397460938 L 2.007770538330078 15.83756637573242 C 1.685909271240234 15.99526786804199 1.500839233398438 16.23253631591797 1.500011444091797 16.4885368347168 C 1.499179840087891 16.74379730224609 1.682319641113281 16.98164749145508 2.002330780029297 17.14102745056152 L 30.84439086914062 31.50189781188965 C 31.04006958007812 31.59955787658691 31.26734161376953 31.65118789672852 31.50163078308105 31.65118789672852 C 31.73375129699707 31.65118789672852 31.95998191833496 31.60053634643555 32.15325164794922 31.50597763061523 L 61.05050277709961 17.29913711547852 C 61.37123107910156 17.14157676696777 61.5555305480957 16.90407752990723 61.55612945556641 16.64753723144531 C 61.55673217773438 16.39329719543457 61.37524032592773 16.15709686279297 61.05705261230469 15.99892807006836 L 32.25674057006836 1.651706695556641 C 32.05982208251953 1.552446365356445 31.83206176757812 1.49998664855957 31.59807014465332 1.49998664855957 M 31.59807014465332 -7.62939453125e-06 C 32.05829620361328 -7.62939453125e-06 32.51887512207031 0.1040573120117188 32.93190002441406 0.3122482299804688 L 32.93189239501953 0.312255859375 L 61.72589111328125 14.65629768371582 C 63.50653076171875 15.54143714904785 63.49720001220703 17.76841735839844 61.71187973022461 18.64545822143555 L 32.8150520324707 32.85209655761719 C 31.99717712402344 33.25222778320312 30.99237060546875 33.25221633911133 30.17449951171875 32.84399795532227 L 1.333751678466797 18.48378753662109 C -0.451568603515625 17.59460830688477 -0.4422187805175781 15.36762619018555 1.347770690917969 14.49056625366211 L 30.29133987426758 0.3001174926757812 C 30.69618606567383 0.1000518798828125 31.14696502685547 -7.62939453125e-06 31.59807014465332 -7.62939453125e-06 Z" stroke="none" fill="#d1d1d1"/>
    </g>
    <g id="Vector-16" data-name="Vector" transform="translate(65.839 160.71)" fill="none">
      <path d="M30.308,58.235,1.341,43.967a2.269,2.269,0,0,1-1.341-2V2.3C0,.539,2.2-.568,3.973.3L32.939,14.572a2.269,2.269,0,0,1,1.341,2V56.238C34.281,58,32.08,59.112,30.308,58.235Z" stroke="none"/>
      <path d="M 31.6229133605957 57.04143142700195 C 32.17057418823242 57.04143142700195 32.78079605102539 56.71145248413086 32.78079605102539 56.23794174194336 L 32.78079605102539 16.56852340698242 C 32.78079605102539 16.32419395446777 32.58252334594727 16.06847381591797 32.27669525146484 15.91755294799805 L 3.309414148330688 1.65013313293457 C 3.107294321060181 1.5505131483078 2.889244318008423 1.500003099441528 2.661334276199341 1.500003099441528 C 2.112034320831299 1.500003099441528 1.499994158744812 1.829073190689087 1.499994158744812 2.301283121109009 L 1.499994158744812 41.9706916809082 C 1.499994158744812 42.21502304077148 1.698264241218567 42.47074127197266 2.004094123840332 42.62166213989258 L 30.97382354736328 56.89029312133789 C 31.17636489868164 56.99058151245117 31.39474487304688 57.04143142700195 31.6229133605957 57.04143142700195 M 31.62291526794434 58.54143142700195 C 31.18413352966309 58.54143142700195 30.7338695526123 58.44529724121094 30.3082332611084 58.23454284667969 L 1.341324210166931 43.96729278564453 C 0.5140942335128784 43.55908203125 -5.789184797322378e-06 42.79519271850586 -5.789184797322378e-06 41.9706916809082 L -5.789184797322378e-06 2.301283121109009 C -5.789184342575027e-06 0.5390931963920593 2.201263189315796 -0.5683370232582092 3.972554206848145 0.3046831488609314 L 32.9394645690918 14.57192325592041 C 33.76669311523438 14.98013305664062 34.28079605102539 15.74402332305908 34.28079605102539 16.56852340698242 L 34.28079605102539 56.23794174194336 C 34.28079605102539 57.57975769042969 33.01013946533203 58.54143142700195 31.62291526794434 58.54143142700195 Z" stroke="none" fill="#d1d1d1"/>
    </g>
    <g id="Vector-17" data-name="Vector" transform="translate(31.525 98.893)" fill="none">
      <path d="M30.308,58.235,1.341,43.967a2.269,2.269,0,0,1-1.341-2V2.3C0,.539,2.2-.568,3.973.3L32.939,14.572a2.269,2.269,0,0,1,1.341,2V56.238C34.281,58,32.08,59.112,30.308,58.235Z" stroke="none"/>
      <path d="M 31.62295913696289 57.04143142700195 C 32.17060852050781 57.04143142700195 32.78081893920898 56.71146392822266 32.78081893920898 56.23796463012695 L 32.78081893920898 16.56852340698242 C 32.78081893920898 16.32419395446777 32.58255767822266 16.06847381591797 32.27672958374023 15.91755294799805 L 3.309409379959106 1.65013313293457 C 3.107289552688599 1.5505131483078 2.889239549636841 1.500003099441528 2.661329507827759 1.500003099441528 C 2.112039566040039 1.500003099441528 1.499999523162842 1.829073190689087 1.499999523162842 2.301283121109009 L 1.499999523162842 41.9706916809082 C 1.499999523162842 42.21502304077148 1.698269486427307 42.47074127197266 2.00408935546875 42.62166213989258 L 30.97386932373047 56.89030456542969 C 31.17639923095703 56.99058151245117 31.39477920532227 57.04143142700195 31.62295913696289 57.04143142700195 M 31.62295532226562 58.54143524169922 C 31.18417739868164 58.54143524169922 30.73390197753906 58.44529724121094 30.30826950073242 58.23454284667969 L 1.341319441795349 43.96729278564453 C 0.5140994787216187 43.55908203125 -5.303954822011292e-07 42.79519271850586 -5.303954822011292e-07 41.9706916809082 L -5.303954822011292e-07 2.301283121109009 C -5.303954822011292e-07 0.5390929579734802 2.201260328292847 -0.5683366060256958 3.972549438476562 0.3046831488609314 L 32.93949890136719 14.57192325592041 C 33.76673126220703 14.98013305664062 34.28081893920898 15.74402332305908 34.28081893920898 16.56852340698242 L 34.28081893920898 56.23796463012695 C 34.28081893920898 57.57977676391602 33.01017379760742 58.54143524169922 31.62295532226562 58.54143524169922 Z" stroke="none" fill="#d1d1d1"/>
    </g>
  </g>
</svg>
