<svg id="_2231006613280" xmlns="http://www.w3.org/2000/svg" width="34.917" height="32.052" viewBox="0 0 34.917 32.052">
  <path id="Caminho_8323" data-name="Caminho 8323" d="M1515.624,101.923H1492.1a1.021,1.021,0,0,1-.627-.191.97.97,0,0,1-.4-.423c.221-.33,5.106-5.14,5.916-5.95.576-.576.532-.733,1.245-.733a17.668,17.668,0,0,1,2.506,2.336c.969.97,1.117.912,1.985-.163l4.315-5.164c.289-.357.558-.7.862-1.048.62-.711.557-.871,1.243-.871.269,0,1.664,1.708,2.025,2.135.107.126.1.141.209.268s.15.144.26.286c.184.236.283.32.467.556l1.454,1.683a3.011,3.011,0,0,1,.212.266c.366.454,3.147,3.526,3.147,3.741v1.977a1.353,1.353,0,0,1-1.3,1.3Zm-13.98-6.206c-1.273-.853-1.833-2.591-3.682-2.591a2.873,2.873,0,0,0-2.1,1.245c-.657.657-4.734,4.809-5.063,5.029V84.874c0-1.288-.38-3.273,1.569-3.273h22.982a1.552,1.552,0,0,1,1.337.641c.339.493.232,1.042.232,1.814V96.262l-4.108-4.758c-.588-.66-2.143-2.752-2.9-3.106a2.253,2.253,0,0,0-2.359.343l-2.11,2.459c-1.075,1.233-2.29,2.836-3.344,4.021a2.53,2.53,0,0,1-.46.5ZM1489.3,83.032V100.49a2.891,2.891,0,0,0,.792,2,2.738,2.738,0,0,0,1.936.928h23.6a2.868,2.868,0,0,0,2.8-2.8v-17.8c0-1.5-1.388-2.728-3.273-2.728h-22.573a2.961,2.961,0,0,0-3.273,2.932Z" transform="translate(-1483.503 -80.1)" fill="#05c3dd" fill-rule="evenodd"/>
  <path id="Caminho_8324" data-name="Caminho 8324" d="M1315.191,429.76a2.9,2.9,0,0,0,1.749,2.82c.58.281,8.444,2.258,9.973,2.712,2.064.612,4.568,1.175,6.667,1.789.837.244,6.345,1.749,6.776,1.749,3.178,0,3.1-2.617,3.947-5.464.036-.123.281-.971.281-1.015a.8.8,0,0,0-.682-.818c-.787,0-.813.616-.994,1.256s-.3,1.154-.477,1.773c-.478,1.687-.385,2.767-2.006,2.767l-3.04-.779c-1.046-.3-2.012-.532-3.058-.829-2.486-.706-5.131-1.334-7.638-2.046-.557-.158-1.014-.253-1.564-.414-.821-.24-7.156-1.859-7.615-2.069a1.212,1.212,0,0,1-.3-.179c-.893-.726-.42-1.706-.2-2.578.124-.5.236-.926.376-1.4.263-.886.472-1.86.734-2.744.272-.917.462-1.811.734-2.744a24.8,24.8,0,0,0,.706-2.84c0-.485-.358-.682-.818-.682-.721,0-.888,1.526-1.2,2.62l-1.611,6.027a22.914,22.914,0,0,0-.737,3.082Z" transform="translate(-1315.19 -406.778)" fill="#05c3dd" fill-rule="evenodd"/>
  <path id="Caminho_8325" data-name="Caminho 8325" d="M1621.871,214.866a1.433,1.433,0,1,1,2.864,0A1.433,1.433,0,0,1,1621.871,214.866Zm-1.5-.068a2.891,2.891,0,0,0,.792,2l.033.035.772.592a3.1,3.1,0,0,0,2.629.025l.815-.617a2.869,2.869,0,0,0,.564-3.211,3.235,3.235,0,0,0-.606-.894,3.01,3.01,0,0,0-.86-.572,2.926,2.926,0,0,0-4.138,2.638Z" transform="translate(-1610.209 -207.501)" fill="#05c3dd" fill-rule="evenodd"/>
</svg>
