<svg id="_2231006678848" xmlns="http://www.w3.org/2000/svg" width="35.024" height="35.062" viewBox="0 0 35.024 35.062">
  <path id="Caminho_8316" data-name="Caminho 8316" d="M0,153.123v16.1a4.092,4.092,0,0,0,1.229,2.584,4.008,4.008,0,0,0,2.725,1.088H28.81a4.033,4.033,0,0,0,3.884-3.884V156.8c0-.7-1.091-.858-1.2.076-.034.307-.005.8-.005,1.124,0,1.714.086,10.978-.038,11.543a2.784,2.784,0,0,1-2.5,2.156H3.743a2.59,2.59,0,0,1-1.89-.934,3.113,3.113,0,0,1-.723-2.1V153.547a3.069,3.069,0,0,1,.9-2.278,3.1,3.1,0,0,1,2.419-.758H22.1c.83.006,1.059-.024,1.059-.707,0-.257-.344-.494-.636-.494H4.379a4.36,4.36,0,0,0-3.056,1.04A3.884,3.884,0,0,0,0,153.123Z" transform="translate(0 -144.338)" fill="#05c3dd" fill-rule="evenodd"/>
  <path id="Caminho_8317" data-name="Caminho 8317" d="M22.888,904.569a1.342,1.342,0,1,1,2.683,0A1.342,1.342,0,0,1,22.888,904.569Zm-1.13-.636-20.834,0c-.5,0-.915.066-.915.638,0,.811,1.394.565,2.189.565h19.56c.374.78.144.626.828,1.29a2.491,2.491,0,0,0,3.4-.1l.036-.035.348-.429c.15-.259.209-.482.329-.73.461,0,5.34.087,5.652-.067.42-.208.731-1.148-.637-1.135l-5.015,0c-.119-.248-.179-.471-.328-.731a2.528,2.528,0,0,0-3.786-.559,2.8,2.8,0,0,0-.828,1.29Z" transform="translate(-0.01 -871.988)" fill="#05c3dd" fill-rule="evenodd"/>
  <path id="Caminho_8318" data-name="Caminho 8318" d="M346.81,325.6v-9.18c.407.272,6.752,4.431,6.92,4.661-.269.072-3.169,2.066-3.46,2.26s-3.2,2.189-3.46,2.26Zm-1.13-10.31v11.581c0,.229.307.424.565.424a52.638,52.638,0,0,0,4.689-3.008l4.027-2.681c1.049-.7-.14-1.257-.567-1.542-1.21-.807-7.945-5.338-8.078-5.338C345.941,314.73,345.68,314.912,345.68,315.295Z" transform="translate(-334.17 -304.25)" fill="#05c3dd" fill-rule="evenodd"/>
  <path id="Caminho_8319" data-name="Caminho 8319" d="M752.86.451c0,.948.423.609,1.727.815a7.925,7.925,0,0,1,4.646,2.345c2.774,2.774,2.276,5.645,2.51,6.1.242.475,1.074.28,1.074-.155a8.986,8.986,0,0,0-.87-4.143,10.339,10.339,0,0,0-1.865-2.654c-.227-.227-.381-.319-.6-.529C757.55.393,752.86-.655,752.86.451Z" transform="translate(-727.792 0.001)" fill="#05c3dd" fill-rule="evenodd"/>
  <path id="Caminho_8320" data-name="Caminho 8320" d="M752.86,77.2a.5.5,0,0,0,.355.563,2.506,2.506,0,0,0,.774.073,6.139,6.139,0,0,1,1.384.311,5.835,5.835,0,0,1,3.754,5.5.585.585,0,0,0,1.146-.158,6.992,6.992,0,0,0-3.964-6.2C756.027,77.168,752.86,75.9,752.86,77.2Z" transform="translate(-727.792 -74.068)" fill="#05c3dd" fill-rule="evenodd"/>
  <path id="Caminho_8321" data-name="Caminho 8321" d="M718.01,232.632a.565.565,0,1,1,1.13,0A.565.565,0,1,1,718.01,232.632Zm-1.2,0a1.854,1.854,0,0,0,.5,1.2.737.737,0,0,0,.108.1,1.735,1.735,0,1,0,.478-2.9,1.812,1.812,0,0,0-1.085,1.6Z" transform="translate(-692.943 -223.212)" fill="#05c3dd" fill-rule="evenodd"/>
  <path id="Caminho_8322" data-name="Caminho 8322" d="M756.069,158.422c.882,0,.633-1.092.466-1.667a5.015,5.015,0,0,0-.807-1.593,4.47,4.47,0,0,0-3.26-1.612.6.6,0,1,0-.127,1.186,3.046,3.046,0,0,1,1.873.6C756.15,156.78,754.975,158.422,756.069,158.422Z" transform="translate(-726.765 -148.437)" fill="#05c3dd" fill-rule="evenodd"/>
</svg>
