<svg id="Grupo_14" data-name="Grupo 14" xmlns="http://www.w3.org/2000/svg" width="39.979" height="35.136" viewBox="0 0 39.979 35.136">
  <path id="Caminho_81" data-name="Caminho 81" d="M0,357.173v4.295a6.141,6.141,0,0,0,5.7,5.7H34.279a6.236,6.236,0,0,0,2.24-.571,6.353,6.353,0,0,0,2.864-2.836,6.257,6.257,0,0,0,.6-2.292v-4.295a1.019,1.019,0,0,0-2.035-.082c-.126,2.9.654,5.476-1.723,7.257a4.659,4.659,0,0,1-2.88.79H6.637c-2.354,0-3.773-1.084-4.364-2.819-.39-1.146-.213-3.682-.238-5.15a.749.749,0,0,0-.253-.684A1.015,1.015,0,0,0,0,357.173Z" transform="translate(0 -332.032)" fill="#05c3dd" fill-rule="evenodd"/>
  <path id="Caminho_82" data-name="Caminho 82" d="M140.186,43.39l-7.016-6.258a4.752,4.752,0,0,0-1.248-.944c-.573-.181-1.262.133-1.262,1.19,0,.524,1.8,1.91,2.362,2.4.875.771,4.3,3.944,5.024,4.5,1.514,1.169,1.432,1.919,3.469,1.919,1.087,0,2.554-1.718,3.459-2.475l5.657-5.04c.708-.72,1.113-.631,1.113-1.62a1,1,0,0,0-1.2-.9,12.773,12.773,0,0,0-2.408,1.971c-.561.561-2.289,1.968-2.928,2.616-.237.241-.395.312-.627.545l-1.156,1.03c-.414.32-.771.77-1.2,1.06V24.417c0-.622.144-1.717-1.015-1.717-1.127,0-1.017,1.036-1.015,1.639V43.392Z" transform="translate(-121.212 -22.7)" fill="#05c3dd" fill-rule="evenodd"/>
  <path id="Caminho_83" data-name="Caminho 83" d="M85.3,412.346a1.09,1.09,0,0,0,1.171,1.171h25.3a1.057,1.057,0,1,0,.078-2.108H86.393a1.009,1.009,0,0,0-1.093.937Z" transform="translate(-79.132 -383.301)" fill="#05c3dd" fill-rule="evenodd"/>
</svg>
