<svg id="Grupo_13" data-name="Grupo 13" xmlns="http://www.w3.org/2000/svg" width="35.062" height="35.062" viewBox="0 0 35.062 35.062">
  <path id="Caminho_74" data-name="Caminho 74" d="M710.085,33.349H695.9V18.428h14.921V32.615a.737.737,0,0,1-.734.734Zm-30.9-.734V18.428H694.1V33.349H679.916A.737.737,0,0,1,679.183,32.615ZM695.9,1.713h14.188a.737.737,0,0,1,.734.734V16.634H695.9Zm-16.715.734a.737.737,0,0,1,.734-.734H694.1V16.634H679.183V2.446Zm-1.713-.082V32.7a2.446,2.446,0,0,0,2.365,2.365h30.332a2.446,2.446,0,0,0,2.365-2.365V2.365A2.446,2.446,0,0,0,710.167,0H679.835a2.446,2.446,0,0,0-2.365,2.365Z" transform="translate(-677.47 0)" fill="#05c3dd" fill-rule="evenodd"/>
  <path id="Caminho_75" data-name="Caminho 75" d="M752.873,73.092v2.365c-.869,0-2.62-.153-3.044.218a.854.854,0,0,0,.517,1.5h2.528c0,1.678-.329,3.343.9,3.343a.873.873,0,0,0,.815-.815V77.17h2.528a.861.861,0,1,0-.163-1.713h-2.365V72.929A.861.861,0,1,0,752.873,73.092Z" transform="translate(-744.556 -67.14)" fill="#05c3dd" fill-rule="evenodd"/>
  <path id="Caminho_76" data-name="Caminho 76" d="M1005.58,86.975c0,.9,1.5,1.758,1.957,2.446a8.9,8.9,0,0,1-1.04,1.08c-.38.38-.917.714-.917,1.284a.865.865,0,0,0,.9.815c.634,0,1.517-1.444,2.283-1.957.669.448,1.6,1.957,2.446,1.957a.886.886,0,0,0,.815-.815c0-.586-.875-1.244-1.447-1.814-.207-.205-.429-.33-.51-.632.527-.788,1.957-1.635,1.957-2.283a.877.877,0,0,0-.9-.9c-.634,0-1.517,1.444-2.283,1.957-.385-.1-.833-.711-1.121-1s-.765-.958-1.244-.958A.867.867,0,0,0,1005.58,86.975Z" transform="translate(-982.912 -80.208)" fill="#05c3dd" fill-rule="evenodd"/>
  <path id="Caminho_77" data-name="Caminho 77" d="M749.47,363.227a1.26,1.26,0,0,0,.3.6.907.907,0,0,0,.677.22h6.442a.861.861,0,1,0,.163-1.713h-6.768a.867.867,0,0,0-.815.9Z" transform="translate(-744.496 -337.298)" fill="#05c3dd" fill-rule="evenodd"/>
  <path id="Caminho_78" data-name="Caminho 78" d="M991.411,363.146a.868.868,0,0,0,.978.9h6.442a.932.932,0,0,0,.679-.218.854.854,0,0,0-.517-1.495h-6.768a.873.873,0,0,0-.815.815Z" transform="translate(-969.721 -337.298)" fill="#05c3dd" fill-rule="evenodd"/>
  <path id="Caminho_79" data-name="Caminho 79" d="M800.315,313.667a1.008,1.008,0,0,0-.734-.9c-1.476,0-1,2.051.156,1.631a.892.892,0,0,0,.578-.734Z" transform="translate(-790.285 -291.162)" fill="#05c3dd" fill-rule="evenodd"/>
  <path id="Caminho_80" data-name="Caminho 80" d="M799.319,412.351a.818.818,0,1,0,0-1.631.809.809,0,0,0-.551,1.366A1.232,1.232,0,0,0,799.319,412.351Z" transform="translate(-790.187 -382.345)" fill="#05c3dd" fill-rule="evenodd"/>
</svg>
