<svg id="Componente_29_8" data-name="Componente 29 – 8" xmlns="http://www.w3.org/2000/svg" width="135.999" height="32" viewBox="0 0 135.999 32">
  <path id="Vector" d="M78.628.406l5.939,15.027H81.706l-1.223-3.2H73.626l-1.223,3.2h-2.8L75.548.406Zm.939,9.43-2.511-6.6-2.512,6.6ZM26.81,2.274A7.5,7.5,0,0,1,29.156,7.88a7.481,7.481,0,0,1-2.335,5.594A7.9,7.9,0,0,1,21.1,15.738a7.877,7.877,0,0,1-5.7-2.264A7.481,7.481,0,0,1,13.07,7.88a7.517,7.517,0,0,1,2.335-5.605A7.86,7.86,0,0,1,21.1,0,7.9,7.9,0,0,1,26.81,2.274ZM26.45,7.88a5.288,5.288,0,0,0-1.539-3.853A5.125,5.125,0,0,0,21.1,2.46a5.125,5.125,0,0,0-3.809,1.568A5.288,5.288,0,0,0,15.754,7.88a5.24,5.24,0,0,0,1.539,3.853A5.159,5.159,0,0,0,21.1,13.279a5.143,5.143,0,0,0,3.809-1.557A5.248,5.248,0,0,0,26.45,7.88ZM43.751.261h2.685V15.434H43.751V5.192l-5.086,8.923L33.579,5.192V15.434H30.894V.261h2.685l5.086,8.881ZM53.68,12.974h4.693v2.46H53.549a4.758,4.758,0,0,1-3.591-1.241,4.989,4.989,0,0,1-1.19-3.592V.261H58.22v2.46H51.5V6.313h6.286v2.46H51.5v1.916a2.094,2.094,0,0,0,.676,1.763,2.407,2.407,0,0,0,1.507.523Zm41.007,0v2.46H89.863a4.758,4.758,0,0,1-3.591-1.241,4.989,4.989,0,0,1-1.19-3.592V.261h2.729V10.688a2.094,2.094,0,0,0,.676,1.763,2.4,2.4,0,0,0,1.506.522ZM71.451,2.721H67.022V15.433H64.293V2.721H59.865V.261H71.45v2.46ZM10.36,10.566l2.576,4.815H10.009l-1.96-3.665A3.112,3.112,0,0,0,5.3,10.072H2.729v5.4H0V.295H6.825a4.861,4.861,0,0,1,3.492,1.382,4.56,4.56,0,0,1,1.441,3.429,4.661,4.661,0,0,1-.764,2.634A5.178,5.178,0,0,1,9.386,9.256a5.537,5.537,0,0,1,.975,1.31ZM2.879,7.63v0H5.45l.067,0H6.541a2.454,2.454,0,0,0,1.812-.7,2.414,2.414,0,0,0,.7-1.785A2.368,2.368,0,0,0,8.4,3.429,2.189,2.189,0,0,0,6.76,2.754H2.729V7.63Z" transform="translate(41.313 8.564)" fill="#000052"/>
  <path id="Vector-2" data-name="Vector" d="M15.954,9.6V26.238a.537.537,0,0,1-.806.464L.7,18.384a1.4,1.4,0,0,1-.7-1.21V.537A.537.537,0,0,1,.806.073L15.253,8.391a1.4,1.4,0,0,1,.7,1.21Z" transform="translate(0 5.226)" fill="#000052"/>
  <path id="Vector-3" data-name="Vector" d="M16.263,17.028l-6.145,3.452a.61.61,0,0,1-.91-.53V10.59a1.4,1.4,0,0,0-.7-1.21L.305,4.657a.608.608,0,0,1,0-1.055L6.481.081a.615.615,0,0,1,.611,0l8.782,5.057a1.4,1.4,0,0,1,.7,1.21V16.5a.611.611,0,0,1-.312.532Z" transform="translate(14.408 0)" fill="#05c3dd"/>
</svg>
